Coordinates
version=1
nRows=37
nColumns=38
inDegrees=no

Units are S.I. units (second, meters, Newtons, ...)
If the header above contains a line with 'inDegrees', this indicates whether rotational values are in degrees (yes) or radians (no).

endheader
time	pelvis_tilt	pelvis_list	pelvis_rotation	pelvis_tx	pelvis_ty	pelvis_tz	hip_flexion_r	hip_adduction_r	hip_rotation_r	knee_angle_r	ankle_angle_r	subtalar_angle_r	mtp_angle_r	hip_flexion_l	hip_adduction_l	hip_rotation_l	knee_angle_l	ankle_angle_l	subtalar_angle_l	mtp_angle_l	lumbar_extension	lumbar_bending	lumbar_rotation	arm_flex_r	arm_add_r	arm_rot_r	elbow_flex_r	pro_sup_r	wrist_flex_r	wrist_dev_r	arm_flex_l	arm_add_l	arm_rot_l	elbow_flex_l	pro_sup_l	wrist_flex_l	wrist_dev_l
9.66	3.13208	1.37137	-1.48083	0.64061	1.19193	0.955808	0.166294	-0.214378	-0.291361	0.855895	-0.036508	0	0	-0.171747	0.0118845	-0.239794	0.2045	0.0202766	0	0	-0.329282	-0.0706712	0.0295476	0.317296	-0.414336	-0.0348658	1.48401	1.5708	0	0	0.623458	-0.142712	0.265044	1.31839	0.915971	0	0
9.67	-3.13904	1.37304	-1.49509	0.640633	1.18708	0.95555	0.158519	-0.217582	-0.281495	0.880006	-0.0329957	0	0	-0.16102	0.0145547	-0.243583	0.210639	0.017948	0	0	-0.323996	-0.073048	0.0346701	0.308339	-0.415997	-0.0391779	1.489	1.5708	0	0	0.623129	-0.143045	0.271541	1.31531	0.915114	0	0
9.68	-3.12583	1.37476	-1.51079	0.640793	1.18222	0.955197	0.149623	-0.220354	-0.272197	0.901552	-0.0310739	0	0	-0.150179	0.0172502	-0.247543	0.216735	0.0160329	0	0	-0.318826	-0.0757445	0.0410159	0.298387	-0.417663	-0.0452171	1.49524	1.5708	0	0	0.623339	-0.143125	0.278541	1.31218	0.914087	0	0
9.69	-3.11297	1.37557	-1.52604	0.641127	1.17744	0.954861	0.137839	-0.222302	-0.265069	0.919551	-0.0299184	0	0	-0.140529	0.0193692	-0.251088	0.222558	0.0139834	0	0	-0.314508	-0.078453	0.0481265	0.287524	-0.419363	-0.0523673	1.50263	1.5708	0	0	0.623942	-0.143119	0.286003	1.30917	0.912865	0	0
9.7	-3.09928	1.3762	-1.54251	0.641589	1.17264	0.954479	0.124629	-0.223947	-0.258875	0.93444	-0.0284561	0	0	-0.130988	0.0214268	-0.254915	0.228553	0.0115243	0	0	-0.310426	-0.081249	0.0563033	0.27603	-0.421558	-0.0597948	1.51127	1.5708	0	0	0.624807	-0.142588	0.293249	1.30597	0.911532	0	0
9.71	-3.08382	1.37713	-1.56141	0.642175	1.16781	0.954009	0.110871	-0.225476	-0.252939	0.946266	-0.0263992	0	0	-0.120971	0.0237187	-0.259709	0.234824	0.00958955	0	0	-0.306054	-0.0843431	0.0657269	0.263875	-0.423986	-0.0672944	1.52071	1.5708	0	0	0.625782	-0.141263	0.299822	1.30256	0.910152	0	0
9.72	-3.05372	1.3778	-1.59294	0.643828	1.16279	0.953564	0.0972554	-0.21396	-0.244474	0.956811	-0.0326875	0	0	-0.110829	0.0260746	-0.26612	0.240697	0.00807905	0	0	-0.302435	-0.0921288	0.0741975	0.251308	-0.426572	-0.0769299	1.52989	1.5708	0	0	0.627481	-0.140629	0.306372	1.29934	0.90871	0	0
9.73	-3.03709	1.37852	-1.61355	0.644611	1.15802	0.953041	0.0806373	-0.216171	-0.242117	0.96196	-0.0313916	0	0	-0.101138	0.0283032	-0.27164	0.246746	0.00583337	0	0	-0.297934	-0.0954733	0.0852402	0.23765	-0.428321	-0.0866181	1.53995	1.5708	0	0	0.628485	-0.139048	0.31398	1.29601	0.906431	0	0
9.74	-3.0201	1.37933	-1.63429	0.645407	1.1532	0.952507	0.0629831	-0.218663	-0.242057	0.963901	-0.0302254	0	0	-0.0917284	0.0307479	-0.27607	0.251616	0.00291728	0	0	-0.293286	-0.0985983	0.0961925	0.224151	-0.429995	-0.09548	1.54908	1.5708	0	0	0.629032	-0.137106	0.320133	1.29278	0.90408	0	0
9.75	-3.00264	1.38033	-1.65552	0.646265	1.14829	0.951944	0.0447548	-0.22111	-0.243114	0.962726	-0.0284123	0	0	-0.0820408	0.0331435	-0.28042	0.25621	-4.64033e-05	0	0	-0.288426	-0.101654	0.107367	0.211076	-0.431272	-0.104801	1.55772	1.5708	0	0	0.629601	-0.134678	0.325115	1.28946	0.901606	0	0
9.76	-2.98624	1.38136	-1.67527	0.647148	1.1433	0.95138	0.0252952	-0.223074	-0.245924	0.957966	-0.0294303	0	0	-0.0722606	0.0351647	-0.28433	0.260554	-0.00327717	0	0	-0.283737	-0.104118	0.118273	0.198937	-0.432728	-0.113633	1.56649	1.5708	0	0	0.630116	-0.131848	0.328788	1.28695	0.899188	0	0
9.77	-2.97237	1.38228	-1.69201	0.648073	1.13828	0.950841	0.00441166	-0.224647	-0.251694	0.949632	-0.0325904	0	0	-0.0631452	0.0368456	-0.287289	0.263793	-0.00669794	0	0	-0.279163	-0.105775	0.128839	0.187465	-0.433813	-0.122241	1.57521	1.5708	0	0	0.630667	-0.128588	0.331861	1.28448	0.896583	0	0
9.78	-2.95915	1.38328	-1.70784	0.649066	1.13328	0.950296	-0.0174558	-0.225738	-0.259493	0.938043	-0.0383064	0	0	-0.0544035	0.0383733	-0.290144	0.26616	-0.0103276	0	0	-0.274328	-0.107188	0.139077	0.176418	-0.434103	-0.130849	1.58367	1.5708	0	0	0.631154	-0.125313	0.335055	1.28227	0.894264	0	0
9.79	-2.94579	1.38476	-1.72373	0.650114	1.12822	0.949693	-0.0393638	-0.226239	-0.268403	0.923995	-0.0437179	0	0	-0.0451041	0.0397331	-0.293408	0.268428	-0.0140853	0	0	-0.268872	-0.108425	0.149115	0.165682	-0.43365	-0.139431	1.59217	1.5708	0	0	0.631622	-0.121918	0.338348	1.27975	0.892048	0	0
9.8	-2.93194	1.3865	-1.73968	0.651198	1.123	0.949059	-0.0611642	-0.226319	-0.27815	0.908354	-0.0467065	0	0	-0.0355288	0.0410036	-0.296311	0.27018	-0.0182911	0	0	-0.263314	-0.109557	0.158436	0.155703	-0.432942	-0.147475	1.60033	1.5708	0	0	0.632461	-0.118588	0.341717	1.27627	0.890225	0	0
9.81	-2.91763	1.38876	-1.75593	0.652331	1.1176	0.948385	-0.0821957	-0.225775	-0.288402	0.890818	-0.0479888	0	0	-0.0252998	0.0421075	-0.298997	0.271623	-0.0225289	0	0	-0.257468	-0.110464	0.167353	0.146754	-0.432283	-0.155423	1.60726	1.5708	0	0	0.633607	-0.115128	0.344749	1.27166	0.888388	0	0
9.82	-2.90305	1.39146	-1.77227	0.653568	1.11204	0.947682	-0.102726	-0.224185	-0.29939	0.870453	-0.0502392	0	0	-0.0147137	0.0430667	-0.301132	0.272322	-0.027187	0	0	-0.251365	-0.111165	0.175904	0.138607	-0.431333	-0.163322	1.61355	1.5708	0	0	0.635185	-0.111676	0.347341	1.26631	0.886472	0	0
9.83	-2.88964	1.39434	-1.78705	0.654985	1.10652	0.947001	-0.123882	-0.220939	-0.311093	0.846094	-0.0528471	0	0	-0.00441401	0.0433491	-0.303547	0.27232	-0.0320579	0	0	-0.244928	-0.111619	0.18371	0.130973	-0.429468	-0.170472	1.61942	1.5708	0	0	0.636651	-0.108611	0.349262	1.26072	0.884497	0	0
9.84	-2.87467	1.39795	-1.80317	0.656516	1.10084	0.94624	-0.14438	-0.216406	-0.322666	0.818005	-0.0520128	0	0	0.00686038	0.0433965	-0.306137	0.272153	-0.0372902	0	0	-0.237991	-0.112074	0.190809	0.12439	-0.426977	-0.17681	1.62479	1.5708	0	0	0.638464	-0.105897	0.35086	1.25489	0.882731	0	0
9.85	-2.86276	1.39851	-1.81635	0.658071	1.09456	0.945609	-0.167887	-0.210983	-0.334341	0.785708	-0.0447041	0	0	0.0154263	0.0435575	-0.308673	0.271835	-0.0429911	0	0	-0.235969	-0.11247	0.197373	0.120862	-0.425936	-0.182005	1.63113	1.5708	0	0	0.642691	-0.103008	0.352947	1.24897	0.881578	0	0
9.86	-2.85039	1.39934	-1.83019	0.659697	1.08804	0.944977	-0.190842	-0.204544	-0.346424	0.749455	-0.0303898	0	0	0.0244923	0.0436326	-0.31132	0.271247	-0.0494584	0	0	-0.234192	-0.112755	0.203586	0.118613	-0.425691	-0.185217	1.63704	1.5708	0	0	0.647175	-0.100249	0.35495	1.24248	0.881024	0	0
9.87	-2.83949	1.40037	-1.84236	0.661466	1.08136	0.944361	-0.213624	-0.196061	-0.358561	0.70845	-0.0114788	0	0	0.0339754	0.0429922	-0.313974	0.270777	-0.0564617	0	0	-0.232711	-0.112689	0.209375	0.117076	-0.425383	-0.187654	1.64247	1.5708	0	0	0.651921	-0.0979049	0.357219	1.23548	0.881016	0	0
9.88	-2.83153	1.40183	-1.85152	0.663365	1.07439	0.943789	-0.235452	-0.185174	-0.369468	0.662031	0.010305	0	0	0.0443399	0.041265	-0.3166	0.270862	-0.0639018	0	0	-0.231679	-0.111952	0.214595	0.116702	-0.425054	-0.188937	1.64759	1.5708	0	0	0.656685	-0.0960757	0.358962	1.22845	0.881392	0	0
9.89	-2.82687	1.40363	-1.8574	0.665368	1.06715	0.943258	-0.256198	-0.172435	-0.379566	0.611319	0.0327634	0	0	0.0555283	0.0384691	-0.319614	0.271504	-0.0716483	0	0	-0.231183	-0.110498	0.219377	0.11747	-0.42453	-0.189853	1.65261	1.5708	0	0	0.661481	-0.0946235	0.359641	1.22152	0.882147	0	0
9.9	-2.82346	1.40595	-1.86174	0.667448	1.05963	0.942708	-0.275018	-0.158618	-0.388739	0.561213	0.0549629	0	0	0.0678508	0.0350474	-0.32262	0.272658	-0.0801835	0	0	-0.230994	-0.108554	0.223562	0.119322	-0.424203	-0.189786	1.65761	1.5708	0	0	0.666302	-0.0933001	0.358952	1.21449	0.8832	0	0
9.91	-2.82656	1.40806	-1.85884	0.669545	1.05184	0.942256	-0.291915	-0.144318	-0.399605	0.515771	0.0756008	0	0	0.0801726	0.030396	-0.324957	0.274126	-0.089438	0	0	-0.232275	-0.105286	0.226767	0.122588	-0.424548	-0.187897	1.66289	1.5708	0	0	0.671328	-0.0918484	0.356312	1.20752	0.88474	0	0
9.92	-2.84053	1.40937	-1.84405	0.671512	1.04381	0.942089	-0.30735	-0.129066	-0.412913	0.473764	0.0909337	0	0	0.0912159	0.0243714	-0.326063	0.274995	-0.099876	0	0	-0.235948	-0.0998065	0.228526	0.127711	-0.426401	-0.1832	1.66828	1.5708	0	0	0.676215	-0.0902757	0.351472	1.20115	0.887208	0	0
9.93	-2.86754	1.40874	-1.81514	0.673391	1.03541	0.942307	-0.323643	-0.111102	-0.425189	0.430864	0.0985146	0	0	0.0999339	0.0168245	-0.325703	0.275369	-0.111613	0	0	-0.243617	-0.0923207	0.229001	0.134983	-0.42915	-0.177106	1.6739	1.5708	0	0	0.682126	-0.0883142	0.345205	1.19488	0.890722	0	0
9.94	-2.8975	1.40818	-1.78249	0.675325	1.02685	0.942654	-0.339578	-0.0906174	-0.433471	0.38573	0.10124	0	0	0.108606	0.00848989	-0.325026	0.275079	-0.124373	0	0	-0.251901	-0.0843392	0.228617	0.14334	-0.43182	-0.169568	1.67885	1.5708	0	0	0.688323	-0.086692	0.338334	1.18878	0.895045	0	0
9.95	-2.92548	1.40801	-1.75152	0.677378	1.01816	0.943034	-0.353921	-0.0693531	-0.438536	0.341162	0.101661	0	0	0.117288	0.000173605	-0.324076	0.273376	-0.138517	0	0	-0.26007	-0.0768254	0.227903	0.152301	-0.434286	-0.161719	1.68318	1.5708	0	0	0.694957	-0.0856554	0.33171	1.18281	0.899452	0	0
9.96	-2.9448	1.40933	-1.72878	0.679391	1.00934	0.94328	-0.363882	-0.0497596	-0.442172	0.300202	0.100596	0	0	0.127944	-0.00719984	-0.323587	0.271332	-0.153456	0	0	-0.266745	-0.0705621	0.226866	0.161218	-0.436387	-0.154693	1.68735	1.5708	0	0	0.702034	-0.08492	0.325754	1.17703	0.903508	0	0
9.97	-2.95397	1.41301	-1.71609	0.681345	1.00039	0.943284	-0.368126	-0.0327486	-0.443406	0.263646	0.098521	0	0	0.141669	-0.0135454	-0.323727	0.2695	-0.168413	0	0	-0.270887	-0.0658261	0.225791	0.169902	-0.437863	-0.148019	1.69128	1.5708	0	0	0.709528	-0.0842563	0.320284	1.1712	0.90719	0	0
9.98	-2.95354	1.41875	-1.71279	0.68326	0.991374	0.943038	-0.367415	-0.0185524	-0.442406	0.231789	0.0961569	0	0	0.157835	-0.0190813	-0.323789	0.267928	-0.182151	0	0	-0.272704	-0.0626734	0.224422	0.178455	-0.439407	-0.140966	1.69494	1.5708	0	0	0.71742	-0.0840884	0.315757	1.16575	0.910732	0	0
9.99	-2.94509	1.42552	-1.71709	0.685112	0.982334	0.942621	-0.363858	-0.00682127	-0.440386	0.203458	0.0937054	0	0	0.175298	-0.0239881	-0.324213	0.266799	-0.194256	0	0	-0.273557	-0.060846	0.221808	0.187756	-0.44053	-0.133349	1.69852	1.5708	0	0	0.722556	-0.0789433	0.298886	1.16088	0.916577	0	0
10	-2.94143	1.43931	-1.71832	0.686515	0.973423	0.942044	-0.351023	0.00402666	-0.433459	0.1786	0.0899311	0	0	0.199164	-0.0303344	-0.324642	0.264753	-0.204868	0	0	-0.2622	-0.0531519	0.233685	0.182786	-0.444708	-0.140363	1.70564	1.5708	0	0	0.732325	-0.00440452	0.185992	1.08928	0.936038	0	0
10.01	-2.92669	1.44582	-1.72878	0.688256	0.964494	0.941548	-0.347392	0.0133111	-0.427986	0.151742	0.0873359	0	0	0.215346	-0.0353604	-0.323689	0.263441	-0.210395	0	0	-0.26273	-0.0523696	0.231888	0.190924	-0.445995	-0.13503	1.70954	1.5708	0	0	0.741552	-0.00479279	0.184775	1.08454	0.942964	0	0
10.02	-2.90959	1.45162	-1.74197	0.689962	0.955642	0.941044	-0.344263	0.0214483	-0.420954	0.125769	0.0843726	0	0	0.230158	-0.0405915	-0.321944	0.262021	-0.212997	0	0	-0.263852	-0.0519923	0.230402	0.199158	-0.447435	-0.130202	1.71353	1.5708	0	0	0.751295	-0.00563034	0.18568	1.08018	0.948281	0	0
